<?xml version="1.0"?>
<svg xmlns="http://www.w3.org/2000/svg" height="512px" viewBox="0 0 512.00013 512" width="512px"><g><path d="m472.523438 81.902344-42.425782-42.425782c-52.636718-52.636718-138.285156-52.636718-190.921875 0-49.050781 49.050782-52.382812 126.765626-10.011719 179.722657l-216.003906 216c-17.546875 17.546875-17.546875 46.09375 0 63.640625s46.09375 17.546875 63.640625 0l29.980469-29.980469 42.425781 42.425781 63.640625-63.636718-42.425781-42.429688 21.210937-21.210938 42.425782 42.425782 63.640625-63.640625-42.425781-42.425781 37.53125-37.53125c52.957031 42.367187 130.667968 39.035156 179.71875-10.015626 52.636718-52.632812 52.636718-138.28125 0-190.917968zm-53.035157 137.886718c-19.746093 19.746094-49.9375 22.824219-72.945312 9.238282 16.226562-17.628906 15.800781-45.171875-1.300781-62.269532-17.097657-17.101562-44.640626-17.527343-62.269532-1.300781-13.585937-23.003906-10.507812-53.203125 9.238282-72.945312 23.394531-23.394531 61.457031-23.394531 84.851562 0l42.425781 42.425781c23.394531 23.394531 23.394531 61.457031 0 84.851562zm0 0" data-original="#000000" class="active-path" data-old_color="#PRIVAT" fill="#1294FF"/></g> </svg>
